<mxfile host="Electron" modified="2024-01-21T09:36:25.988Z" agent="Mozilla/5.0 (Windows NT 10.0; Win64; x64) AppleWebKit/537.36 (KHTML, like Gecko) draw.io/22.0.2 Chrome/114.0.5735.289 Electron/25.8.4 Safari/537.36" etag="jT38aI_95AMyH31cEq-t" version="22.0.2" type="device">
  <diagram name="Page-1" id="nlbB7I6BTX9gHW2IwB2L">
    <mxGraphModel dx="1247" dy="727" grid="1" gridSize="10" guides="1" tooltips="1" connect="1" arrows="1" fold="1" page="1" pageScale="1" pageWidth="1654" pageHeight="2336" math="0" shadow="0">
      <root>
        <mxCell id="0" />
        <mxCell id="1" parent="0" />
        <mxCell id="zpUUHPGvN1ia9l1f_LUW-1" value="&lt;p style=&quot;line-height: 120%; font-size: 14px;&quot;&gt;Student&lt;/p&gt;" style="rounded=0;whiteSpace=wrap;html=1;" parent="1" vertex="1">
          <mxGeometry x="790" y="1058" width="120" height="60" as="geometry" />
        </mxCell>
        <mxCell id="zpUUHPGvN1ia9l1f_LUW-2" value="&lt;font style=&quot;font-size: 15px;&quot;&gt;Course&lt;/font&gt;" style="rounded=0;whiteSpace=wrap;html=1;" parent="1" vertex="1">
          <mxGeometry x="827" y="1424" width="120" height="60" as="geometry" />
        </mxCell>
        <mxCell id="zpUUHPGvN1ia9l1f_LUW-3" value="&lt;font style=&quot;font-size: 14px;&quot;&gt;Department&lt;/font&gt;" style="rounded=0;whiteSpace=wrap;html=1;" parent="1" vertex="1">
          <mxGeometry x="1210" y="1058" width="120" height="60" as="geometry" />
        </mxCell>
        <mxCell id="zpUUHPGvN1ia9l1f_LUW-7" value="Name" style="ellipse;whiteSpace=wrap;html=1;" parent="1" vertex="1">
          <mxGeometry x="730" y="928" width="60" height="40" as="geometry" />
        </mxCell>
        <mxCell id="zpUUHPGvN1ia9l1f_LUW-8" value="" style="endArrow=none;html=1;rounded=0;entryX=0.5;entryY=1;entryDx=0;entryDy=0;exitX=0.083;exitY=0;exitDx=0;exitDy=0;exitPerimeter=0;" parent="1" source="zpUUHPGvN1ia9l1f_LUW-1" target="zpUUHPGvN1ia9l1f_LUW-7" edge="1">
          <mxGeometry width="50" height="50" relative="1" as="geometry">
            <mxPoint x="780" y="1108" as="sourcePoint" />
            <mxPoint x="830" y="1058" as="targetPoint" />
          </mxGeometry>
        </mxCell>
        <mxCell id="zpUUHPGvN1ia9l1f_LUW-9" value="ID" style="ellipse;whiteSpace=wrap;html=1;" parent="1" vertex="1">
          <mxGeometry x="770" y="878" width="60" height="40" as="geometry" />
        </mxCell>
        <mxCell id="zpUUHPGvN1ia9l1f_LUW-10" value="" style="endArrow=none;html=1;rounded=0;entryX=0.5;entryY=1;entryDx=0;entryDy=0;exitX=0.167;exitY=0;exitDx=0;exitDy=0;exitPerimeter=0;" parent="1" source="zpUUHPGvN1ia9l1f_LUW-1" target="zpUUHPGvN1ia9l1f_LUW-9" edge="1">
          <mxGeometry width="50" height="50" relative="1" as="geometry">
            <mxPoint x="888" y="1047" as="sourcePoint" />
            <mxPoint x="920" y="1048" as="targetPoint" />
          </mxGeometry>
        </mxCell>
        <mxCell id="zpUUHPGvN1ia9l1f_LUW-11" value="DOB" style="ellipse;whiteSpace=wrap;html=1;" parent="1" vertex="1">
          <mxGeometry x="820" y="918" width="60" height="40" as="geometry" />
        </mxCell>
        <mxCell id="zpUUHPGvN1ia9l1f_LUW-12" value="" style="endArrow=none;html=1;rounded=0;entryX=0.5;entryY=1;entryDx=0;entryDy=0;exitX=0.333;exitY=0;exitDx=0;exitDy=0;exitPerimeter=0;" parent="1" source="zpUUHPGvN1ia9l1f_LUW-1" target="zpUUHPGvN1ia9l1f_LUW-11" edge="1">
          <mxGeometry width="50" height="50" relative="1" as="geometry">
            <mxPoint x="880" y="1048" as="sourcePoint" />
            <mxPoint x="990" y="1038" as="targetPoint" />
          </mxGeometry>
        </mxCell>
        <mxCell id="zpUUHPGvN1ia9l1f_LUW-13" value="Join_Date" style="ellipse;whiteSpace=wrap;html=1;" parent="1" vertex="1">
          <mxGeometry x="870" y="878" width="70" height="40" as="geometry" />
        </mxCell>
        <mxCell id="zpUUHPGvN1ia9l1f_LUW-14" value="" style="endArrow=none;html=1;rounded=0;entryX=0.5;entryY=1;entryDx=0;entryDy=0;exitX=0.417;exitY=0;exitDx=0;exitDy=0;exitPerimeter=0;" parent="1" source="zpUUHPGvN1ia9l1f_LUW-1" target="zpUUHPGvN1ia9l1f_LUW-13" edge="1">
          <mxGeometry width="50" height="50" relative="1" as="geometry">
            <mxPoint x="950" y="1058" as="sourcePoint" />
            <mxPoint x="1060" y="1048" as="targetPoint" />
          </mxGeometry>
        </mxCell>
        <mxCell id="zpUUHPGvN1ia9l1f_LUW-15" value="Year" style="ellipse;whiteSpace=wrap;html=1;" parent="1" vertex="1">
          <mxGeometry x="900" y="928" width="60" height="40" as="geometry" />
        </mxCell>
        <mxCell id="zpUUHPGvN1ia9l1f_LUW-16" value="" style="endArrow=none;html=1;rounded=0;entryX=0.5;entryY=1;entryDx=0;entryDy=0;exitX=0.667;exitY=0;exitDx=0;exitDy=0;exitPerimeter=0;" parent="1" source="zpUUHPGvN1ia9l1f_LUW-1" target="zpUUHPGvN1ia9l1f_LUW-15" edge="1">
          <mxGeometry width="50" height="50" relative="1" as="geometry">
            <mxPoint x="960" y="1068" as="sourcePoint" />
            <mxPoint x="1070" y="1058" as="targetPoint" />
          </mxGeometry>
        </mxCell>
        <mxCell id="zpUUHPGvN1ia9l1f_LUW-17" value="CourseID" style="ellipse;whiteSpace=wrap;html=1;" parent="1" vertex="1">
          <mxGeometry x="797" y="1310" width="60" height="40" as="geometry" />
        </mxCell>
        <mxCell id="zpUUHPGvN1ia9l1f_LUW-18" value="" style="endArrow=none;html=1;rounded=0;entryX=0.5;entryY=1;entryDx=0;entryDy=0;exitX=0.146;exitY=0.002;exitDx=0;exitDy=0;exitPerimeter=0;" parent="1" source="zpUUHPGvN1ia9l1f_LUW-2" target="zpUUHPGvN1ia9l1f_LUW-17" edge="1">
          <mxGeometry width="50" height="50" relative="1" as="geometry">
            <mxPoint x="846" y="1410" as="sourcePoint" />
            <mxPoint x="950" y="1254" as="targetPoint" />
          </mxGeometry>
        </mxCell>
        <mxCell id="zpUUHPGvN1ia9l1f_LUW-19" value="Name" style="ellipse;whiteSpace=wrap;html=1;" parent="1" vertex="1">
          <mxGeometry x="850" y="1250" width="60" height="40" as="geometry" />
        </mxCell>
        <mxCell id="zpUUHPGvN1ia9l1f_LUW-20" value="" style="endArrow=none;html=1;rounded=0;entryX=0.5;entryY=1;entryDx=0;entryDy=0;exitX=0.203;exitY=0.002;exitDx=0;exitDy=0;exitPerimeter=0;" parent="1" source="zpUUHPGvN1ia9l1f_LUW-2" target="zpUUHPGvN1ia9l1f_LUW-19" edge="1">
          <mxGeometry width="50" height="50" relative="1" as="geometry">
            <mxPoint x="888" y="1374" as="sourcePoint" />
            <mxPoint x="990" y="1214" as="targetPoint" />
          </mxGeometry>
        </mxCell>
        <mxCell id="zpUUHPGvN1ia9l1f_LUW-21" value="Hours" style="ellipse;whiteSpace=wrap;html=1;" parent="1" vertex="1">
          <mxGeometry x="895" y="1290" width="60" height="40" as="geometry" />
        </mxCell>
        <mxCell id="zpUUHPGvN1ia9l1f_LUW-22" value="" style="endArrow=none;html=1;rounded=0;entryX=0.5;entryY=1;entryDx=0;entryDy=0;exitX=0.417;exitY=0;exitDx=0;exitDy=0;exitPerimeter=0;" parent="1" source="zpUUHPGvN1ia9l1f_LUW-2" target="zpUUHPGvN1ia9l1f_LUW-21" edge="1">
          <mxGeometry width="50" height="50" relative="1" as="geometry">
            <mxPoint x="904" y="1453" as="sourcePoint" />
            <mxPoint x="1040" y="1254" as="targetPoint" />
          </mxGeometry>
        </mxCell>
        <mxCell id="zpUUHPGvN1ia9l1f_LUW-23" value="City" style="ellipse;whiteSpace=wrap;html=1;" parent="1" vertex="1">
          <mxGeometry x="960" y="898" width="60" height="40" as="geometry" />
        </mxCell>
        <mxCell id="zpUUHPGvN1ia9l1f_LUW-24" value="" style="endArrow=none;html=1;rounded=0;entryX=0.323;entryY=0.967;entryDx=0;entryDy=0;exitX=0.878;exitY=-0.003;exitDx=0;exitDy=0;exitPerimeter=0;entryPerimeter=0;" parent="1" source="zpUUHPGvN1ia9l1f_LUW-1" target="zpUUHPGvN1ia9l1f_LUW-23" edge="1">
          <mxGeometry width="50" height="50" relative="1" as="geometry">
            <mxPoint x="879" y="1067" as="sourcePoint" />
            <mxPoint x="940" y="978" as="targetPoint" />
          </mxGeometry>
        </mxCell>
        <mxCell id="zpUUHPGvN1ia9l1f_LUW-25" value="Street" style="ellipse;whiteSpace=wrap;html=1;" parent="1" vertex="1">
          <mxGeometry x="960" y="968" width="60" height="40" as="geometry" />
        </mxCell>
        <mxCell id="zpUUHPGvN1ia9l1f_LUW-26" value="" style="endArrow=none;html=1;rounded=0;entryX=0.323;entryY=0.967;entryDx=0;entryDy=0;entryPerimeter=0;exitX=0.925;exitY=0.001;exitDx=0;exitDy=0;exitPerimeter=0;" parent="1" source="zpUUHPGvN1ia9l1f_LUW-1" target="zpUUHPGvN1ia9l1f_LUW-25" edge="1">
          <mxGeometry width="50" height="50" relative="1" as="geometry">
            <mxPoint x="920" y="1058" as="sourcePoint" />
            <mxPoint x="1004" y="988" as="targetPoint" />
          </mxGeometry>
        </mxCell>
        <mxCell id="zpUUHPGvN1ia9l1f_LUW-27" value="Max_Grade" style="ellipse;whiteSpace=wrap;html=1;" parent="1" vertex="1">
          <mxGeometry x="940" y="1260" width="80" height="40" as="geometry" />
        </mxCell>
        <mxCell id="zpUUHPGvN1ia9l1f_LUW-28" value="" style="endArrow=none;html=1;rounded=0;entryX=0.5;entryY=1;entryDx=0;entryDy=0;exitX=0.667;exitY=0;exitDx=0;exitDy=0;exitPerimeter=0;" parent="1" source="zpUUHPGvN1ia9l1f_LUW-2" target="zpUUHPGvN1ia9l1f_LUW-27" edge="1">
          <mxGeometry width="50" height="50" relative="1" as="geometry">
            <mxPoint x="930" y="1364" as="sourcePoint" />
            <mxPoint x="1090" y="1204" as="targetPoint" />
          </mxGeometry>
        </mxCell>
        <mxCell id="zpUUHPGvN1ia9l1f_LUW-33" value="Name" style="ellipse;whiteSpace=wrap;html=1;" parent="1" vertex="1">
          <mxGeometry x="1250" y="918" width="60" height="40" as="geometry" />
        </mxCell>
        <mxCell id="zpUUHPGvN1ia9l1f_LUW-34" value="" style="endArrow=none;html=1;rounded=0;entryX=0.5;entryY=1;entryDx=0;entryDy=0;exitX=0.392;exitY=0.006;exitDx=0;exitDy=0;exitPerimeter=0;" parent="1" source="zpUUHPGvN1ia9l1f_LUW-3" target="zpUUHPGvN1ia9l1f_LUW-33" edge="1">
          <mxGeometry width="50" height="50" relative="1" as="geometry">
            <mxPoint x="1226" y="1060" as="sourcePoint" />
            <mxPoint x="1362" y="860" as="targetPoint" />
          </mxGeometry>
        </mxCell>
        <mxCell id="zpUUHPGvN1ia9l1f_LUW-35" value="ID" style="ellipse;whiteSpace=wrap;html=1;" parent="1" vertex="1">
          <mxGeometry x="1190" y="938" width="60" height="40" as="geometry" />
        </mxCell>
        <mxCell id="zpUUHPGvN1ia9l1f_LUW-36" value="" style="endArrow=none;html=1;rounded=0;entryX=0.5;entryY=1;entryDx=0;entryDy=0;exitX=0.148;exitY=-0.002;exitDx=0;exitDy=0;exitPerimeter=0;" parent="1" source="zpUUHPGvN1ia9l1f_LUW-3" target="zpUUHPGvN1ia9l1f_LUW-35" edge="1">
          <mxGeometry width="50" height="50" relative="1" as="geometry">
            <mxPoint x="1146" y="1070" as="sourcePoint" />
            <mxPoint x="1282" y="870" as="targetPoint" />
          </mxGeometry>
        </mxCell>
        <mxCell id="zpUUHPGvN1ia9l1f_LUW-37" value="Grade" style="ellipse;whiteSpace=wrap;html=1;" parent="1" vertex="1">
          <mxGeometry x="500" y="1270" width="60" height="40" as="geometry" />
        </mxCell>
        <mxCell id="zpUUHPGvN1ia9l1f_LUW-38" value="" style="endArrow=none;html=1;rounded=0;entryX=1;entryY=0.5;entryDx=0;entryDy=0;exitX=0;exitY=1;exitDx=0;exitDy=0;" parent="1" target="zpUUHPGvN1ia9l1f_LUW-37" edge="1" source="sekl1LV85Ja28qSH2XZl-1">
          <mxGeometry width="50" height="50" relative="1" as="geometry">
            <mxPoint x="480" y="1250" as="sourcePoint" />
            <mxPoint x="510" y="1250" as="targetPoint" />
          </mxGeometry>
        </mxCell>
        <mxCell id="zpUUHPGvN1ia9l1f_LUW-39" value="Semester" style="ellipse;whiteSpace=wrap;html=1;" parent="1" vertex="1">
          <mxGeometry x="490" y="1210" width="60" height="40" as="geometry" />
        </mxCell>
        <mxCell id="zpUUHPGvN1ia9l1f_LUW-40" value="" style="endArrow=none;html=1;rounded=0;entryX=0.963;entryY=0.705;entryDx=0;entryDy=0;exitX=0;exitY=0.5;exitDx=0;exitDy=0;entryPerimeter=0;" parent="1" source="sekl1LV85Ja28qSH2XZl-1" target="zpUUHPGvN1ia9l1f_LUW-39" edge="1">
          <mxGeometry width="50" height="50" relative="1" as="geometry">
            <mxPoint x="511.20000000000005" y="1249.9399999999998" as="sourcePoint" />
            <mxPoint x="570" y="1220" as="targetPoint" />
          </mxGeometry>
        </mxCell>
        <mxCell id="zpUUHPGvN1ia9l1f_LUW-41" value="Year" style="ellipse;whiteSpace=wrap;html=1;" parent="1" vertex="1">
          <mxGeometry x="530" y="1160" width="60" height="40" as="geometry" />
        </mxCell>
        <mxCell id="zpUUHPGvN1ia9l1f_LUW-42" value="" style="endArrow=none;html=1;rounded=0;entryX=0.5;entryY=1;entryDx=0;entryDy=0;exitX=0;exitY=0;exitDx=0;exitDy=0;" parent="1" target="zpUUHPGvN1ia9l1f_LUW-41" edge="1" source="sekl1LV85Ja28qSH2XZl-1">
          <mxGeometry width="50" height="50" relative="1" as="geometry">
            <mxPoint x="522" y="1210" as="sourcePoint" />
            <mxPoint x="630" y="1220" as="targetPoint" />
          </mxGeometry>
        </mxCell>
        <mxCell id="zpUUHPGvN1ia9l1f_LUW-43" value="Assigned" style="rhombus;whiteSpace=wrap;html=1;" parent="1" vertex="1">
          <mxGeometry x="1020" y="1058" width="74" height="64" as="geometry" />
        </mxCell>
        <mxCell id="zpUUHPGvN1ia9l1f_LUW-51" value="" style="endArrow=none;html=1;rounded=0;entryX=-0.001;entryY=0.528;entryDx=0;entryDy=0;entryPerimeter=0;exitX=1;exitY=0.5;exitDx=0;exitDy=0;" parent="1" source="zpUUHPGvN1ia9l1f_LUW-43" target="zpUUHPGvN1ia9l1f_LUW-3" edge="1">
          <mxGeometry width="50" height="50" relative="1" as="geometry">
            <mxPoint x="1110" y="1090" as="sourcePoint" />
            <mxPoint x="1202" y="1089" as="targetPoint" />
          </mxGeometry>
        </mxCell>
        <mxCell id="zpUUHPGvN1ia9l1f_LUW-52" value="1" style="text;html=1;align=center;verticalAlign=middle;resizable=0;points=[];autosize=1;strokeColor=none;fillColor=none;" parent="1" vertex="1">
          <mxGeometry x="1180" y="1065" width="30" height="30" as="geometry" />
        </mxCell>
        <mxCell id="zpUUHPGvN1ia9l1f_LUW-53" value="M" style="text;html=1;align=center;verticalAlign=middle;resizable=0;points=[];autosize=1;strokeColor=none;fillColor=none;" parent="1" vertex="1">
          <mxGeometry x="910" y="1065" width="30" height="30" as="geometry" />
        </mxCell>
        <mxCell id="zpUUHPGvN1ia9l1f_LUW-54" value="" style="shape=link;html=1;rounded=0;entryX=0.032;entryY=0.493;entryDx=0;entryDy=0;entryPerimeter=0;exitX=1.001;exitY=0.535;exitDx=0;exitDy=0;exitPerimeter=0;" parent="1" source="zpUUHPGvN1ia9l1f_LUW-1" target="zpUUHPGvN1ia9l1f_LUW-43" edge="1">
          <mxGeometry width="100" relative="1" as="geometry">
            <mxPoint x="910" y="1089.76" as="sourcePoint" />
            <mxPoint x="1020" y="1090" as="targetPoint" />
          </mxGeometry>
        </mxCell>
        <mxCell id="zpUUHPGvN1ia9l1f_LUW-56" value="Has" style="rhombus;whiteSpace=wrap;html=1;" parent="1" vertex="1">
          <mxGeometry x="1233" y="1420" width="74" height="64" as="geometry" />
        </mxCell>
        <mxCell id="zpUUHPGvN1ia9l1f_LUW-59" value="M" style="text;html=1;align=center;verticalAlign=middle;resizable=0;points=[];autosize=1;strokeColor=none;fillColor=none;" parent="1" vertex="1">
          <mxGeometry x="950" y="1422" width="30" height="30" as="geometry" />
        </mxCell>
        <mxCell id="zpUUHPGvN1ia9l1f_LUW-60" value="M" style="text;html=1;align=center;verticalAlign=middle;resizable=0;points=[];autosize=1;strokeColor=none;fillColor=none;" parent="1" vertex="1">
          <mxGeometry x="1245" y="1118" width="30" height="30" as="geometry" />
        </mxCell>
        <mxCell id="zpUUHPGvN1ia9l1f_LUW-61" value="" style="shape=link;html=1;rounded=0;entryX=0.5;entryY=1;entryDx=0;entryDy=0;exitX=0.5;exitY=0;exitDx=0;exitDy=0;" parent="1" source="zpUUHPGvN1ia9l1f_LUW-56" target="zpUUHPGvN1ia9l1f_LUW-3" edge="1">
          <mxGeometry width="100" relative="1" as="geometry">
            <mxPoint x="1133" y="1289.39" as="sourcePoint" />
            <mxPoint x="1233" y="1289.39" as="targetPoint" />
          </mxGeometry>
        </mxCell>
        <mxCell id="zpUUHPGvN1ia9l1f_LUW-62" value="" style="shape=link;html=1;rounded=0;entryX=0;entryY=0.5;entryDx=0;entryDy=0;exitX=1;exitY=0.5;exitDx=0;exitDy=0;" parent="1" source="zpUUHPGvN1ia9l1f_LUW-2" target="zpUUHPGvN1ia9l1f_LUW-56" edge="1">
          <mxGeometry width="100" relative="1" as="geometry">
            <mxPoint x="1110" y="1420" as="sourcePoint" />
            <mxPoint x="1210" y="1420" as="targetPoint" />
          </mxGeometry>
        </mxCell>
        <mxCell id="sekl1LV85Ja28qSH2XZl-1" value="Has" style="rhombus;whiteSpace=wrap;html=1;" parent="1" vertex="1">
          <mxGeometry x="630" y="1220" width="74" height="64" as="geometry" />
        </mxCell>
        <mxCell id="sekl1LV85Ja28qSH2XZl-2" value="" style="endArrow=none;html=1;rounded=0;entryX=0;entryY=0.5;entryDx=0;entryDy=0;exitX=0.5;exitY=0;exitDx=0;exitDy=0;" parent="1" source="sekl1LV85Ja28qSH2XZl-1" target="zpUUHPGvN1ia9l1f_LUW-1" edge="1">
          <mxGeometry width="50" height="50" relative="1" as="geometry">
            <mxPoint x="670" y="1160" as="sourcePoint" />
            <mxPoint x="720" y="1110" as="targetPoint" />
          </mxGeometry>
        </mxCell>
        <mxCell id="sekl1LV85Ja28qSH2XZl-5" value="M" style="text;html=1;align=center;verticalAlign=middle;resizable=0;points=[];autosize=1;strokeColor=none;fillColor=none;" parent="1" vertex="1">
          <mxGeometry x="760" y="1058" width="30" height="30" as="geometry" />
        </mxCell>
        <mxCell id="sekl1LV85Ja28qSH2XZl-6" value="" style="endArrow=none;html=1;rounded=0;entryX=0.5;entryY=1;entryDx=0;entryDy=0;exitX=0;exitY=0.5;exitDx=0;exitDy=0;" parent="1" source="zpUUHPGvN1ia9l1f_LUW-2" target="sekl1LV85Ja28qSH2XZl-1" edge="1">
          <mxGeometry width="50" height="50" relative="1" as="geometry">
            <mxPoint x="630" y="1374" as="sourcePoint" />
            <mxPoint x="680" y="1324" as="targetPoint" />
          </mxGeometry>
        </mxCell>
        <mxCell id="sekl1LV85Ja28qSH2XZl-7" value="N" style="text;html=1;align=center;verticalAlign=middle;resizable=0;points=[];autosize=1;strokeColor=none;fillColor=none;" parent="1" vertex="1">
          <mxGeometry x="797" y="1439" width="30" height="30" as="geometry" />
        </mxCell>
        <mxCell id="sekl1LV85Ja28qSH2XZl-80" value="&lt;font style=&quot;font-size: 17px;&quot;&gt;1-&amp;nbsp;StudentsTable&lt;/font&gt;" style="text;html=1;align=center;verticalAlign=middle;resizable=0;points=[];autosize=1;strokeColor=none;fillColor=none;" parent="1" vertex="1">
          <mxGeometry y="1600" width="150" height="30" as="geometry" />
        </mxCell>
        <mxCell id="JlU4dWkG2RvN66Z_O7ki-3" value="" style="group" vertex="1" connectable="0" parent="1">
          <mxGeometry y="1630" width="1150" height="63" as="geometry" />
        </mxCell>
        <mxCell id="sekl1LV85Ja28qSH2XZl-79" value="" style="group" parent="JlU4dWkG2RvN66Z_O7ki-3" vertex="1" connectable="0">
          <mxGeometry y="10" width="1011.9999999999998" height="53" as="geometry" />
        </mxCell>
        <mxCell id="sekl1LV85Ja28qSH2XZl-58" value="" style="shape=table;startSize=0;container=1;collapsible=0;childLayout=tableLayout;fontSize=16;" parent="sekl1LV85Ja28qSH2XZl-79" vertex="1">
          <mxGeometry y="-10" width="437" height="40" as="geometry" />
        </mxCell>
        <mxCell id="sekl1LV85Ja28qSH2XZl-59" value="" style="shape=tableRow;horizontal=0;startSize=0;swimlaneHead=0;swimlaneBody=0;strokeColor=inherit;top=0;left=0;bottom=0;right=0;collapsible=0;dropTarget=0;fillColor=none;points=[[0,0.5],[1,0.5]];portConstraint=eastwest;fontSize=16;" parent="sekl1LV85Ja28qSH2XZl-58" vertex="1">
          <mxGeometry width="437" height="40" as="geometry" />
        </mxCell>
        <mxCell id="sekl1LV85Ja28qSH2XZl-60" value="&lt;font style=&quot;font-size: 16px;&quot;&gt;student_id(PK)&lt;/font&gt;" style="shape=partialRectangle;html=1;whiteSpace=wrap;connectable=0;strokeColor=inherit;overflow=hidden;fillColor=none;top=0;left=0;bottom=0;right=0;pointerEvents=1;fontSize=16;" parent="sekl1LV85Ja28qSH2XZl-59" vertex="1">
          <mxGeometry width="148" height="40" as="geometry">
            <mxRectangle width="148" height="40" as="alternateBounds" />
          </mxGeometry>
        </mxCell>
        <mxCell id="sekl1LV85Ja28qSH2XZl-61" value="name" style="shape=partialRectangle;html=1;whiteSpace=wrap;connectable=0;strokeColor=inherit;overflow=hidden;fillColor=none;top=0;left=0;bottom=0;right=0;pointerEvents=1;fontSize=16;" parent="sekl1LV85Ja28qSH2XZl-59" vertex="1">
          <mxGeometry x="148" width="142" height="40" as="geometry">
            <mxRectangle width="142" height="40" as="alternateBounds" />
          </mxGeometry>
        </mxCell>
        <mxCell id="sekl1LV85Ja28qSH2XZl-62" value=" dob" style="shape=partialRectangle;html=1;whiteSpace=wrap;connectable=0;strokeColor=inherit;overflow=hidden;fillColor=none;top=0;left=0;bottom=0;right=0;pointerEvents=1;fontSize=16;" parent="sekl1LV85Ja28qSH2XZl-59" vertex="1">
          <mxGeometry x="290" width="147" height="40" as="geometry">
            <mxRectangle width="147" height="40" as="alternateBounds" />
          </mxGeometry>
        </mxCell>
        <mxCell id="sekl1LV85Ja28qSH2XZl-72" value="" style="shape=table;startSize=0;container=1;collapsible=0;childLayout=tableLayout;fontSize=16;" parent="sekl1LV85Ja28qSH2XZl-79" vertex="1">
          <mxGeometry x="437" y="-10" width="437" height="40" as="geometry" />
        </mxCell>
        <mxCell id="sekl1LV85Ja28qSH2XZl-73" value="" style="shape=tableRow;horizontal=0;startSize=0;swimlaneHead=0;swimlaneBody=0;strokeColor=inherit;top=0;left=0;bottom=0;right=0;collapsible=0;dropTarget=0;fillColor=none;points=[[0,0.5],[1,0.5]];portConstraint=eastwest;fontSize=16;" parent="sekl1LV85Ja28qSH2XZl-72" vertex="1">
          <mxGeometry width="437" height="40" as="geometry" />
        </mxCell>
        <mxCell id="sekl1LV85Ja28qSH2XZl-74" value="city" style="shape=partialRectangle;html=1;whiteSpace=wrap;connectable=0;strokeColor=inherit;overflow=hidden;fillColor=none;top=0;left=0;bottom=0;right=0;pointerEvents=1;fontSize=16;" parent="sekl1LV85Ja28qSH2XZl-73" vertex="1">
          <mxGeometry width="148" height="40" as="geometry">
            <mxRectangle width="148" height="40" as="alternateBounds" />
          </mxGeometry>
        </mxCell>
        <mxCell id="sekl1LV85Ja28qSH2XZl-75" value="street" style="shape=partialRectangle;html=1;whiteSpace=wrap;connectable=0;strokeColor=inherit;overflow=hidden;fillColor=none;top=0;left=0;bottom=0;right=0;pointerEvents=1;fontSize=16;" parent="sekl1LV85Ja28qSH2XZl-73" vertex="1">
          <mxGeometry x="148" width="142" height="40" as="geometry">
            <mxRectangle width="142" height="40" as="alternateBounds" />
          </mxGeometry>
        </mxCell>
        <mxCell id="sekl1LV85Ja28qSH2XZl-76" value="year" style="shape=partialRectangle;html=1;whiteSpace=wrap;connectable=0;strokeColor=inherit;overflow=hidden;fillColor=none;top=0;left=0;bottom=0;right=0;pointerEvents=1;fontSize=16;" parent="sekl1LV85Ja28qSH2XZl-73" vertex="1">
          <mxGeometry x="290" width="147" height="40" as="geometry">
            <mxRectangle width="147" height="40" as="alternateBounds" />
          </mxGeometry>
        </mxCell>
        <mxCell id="sekl1LV85Ja28qSH2XZl-78" value="&lt;font style=&quot;font-size: 16px;&quot;&gt;join_date&lt;/font&gt;" style="rounded=0;whiteSpace=wrap;html=1;" parent="sekl1LV85Ja28qSH2XZl-79" vertex="1">
          <mxGeometry x="874" y="-10" width="137.99999999999997" height="40" as="geometry" />
        </mxCell>
        <mxCell id="JlU4dWkG2RvN66Z_O7ki-2" value="&lt;font style=&quot;font-size: 16px;&quot;&gt;department_id(FK)&lt;/font&gt;" style="rounded=0;whiteSpace=wrap;html=1;" vertex="1" parent="JlU4dWkG2RvN66Z_O7ki-3">
          <mxGeometry x="1011.9999999999998" width="137.99999999999997" height="40" as="geometry" />
        </mxCell>
        <mxCell id="JlU4dWkG2RvN66Z_O7ki-54" style="edgeStyle=orthogonalEdgeStyle;rounded=0;orthogonalLoop=1;jettySize=auto;html=1;exitX=0.5;exitY=1;exitDx=0;exitDy=0;entryX=0.417;entryY=1.01;entryDx=0;entryDy=0;entryPerimeter=0;" edge="1" parent="JlU4dWkG2RvN66Z_O7ki-3" source="JlU4dWkG2RvN66Z_O7ki-2" target="JlU4dWkG2RvN66Z_O7ki-2">
          <mxGeometry relative="1" as="geometry" />
        </mxCell>
        <mxCell id="JlU4dWkG2RvN66Z_O7ki-4" value="&lt;font style=&quot;font-size: 17px;&quot;&gt;2-&amp;nbsp;Departments Table&lt;/font&gt;" style="text;html=1;align=center;verticalAlign=middle;resizable=0;points=[];autosize=1;strokeColor=none;fillColor=none;" vertex="1" parent="1">
          <mxGeometry y="1720" width="190" height="30" as="geometry" />
        </mxCell>
        <mxCell id="JlU4dWkG2RvN66Z_O7ki-7" value="" style="group" vertex="1" connectable="0" parent="1">
          <mxGeometry y="1760" width="280" height="50" as="geometry" />
        </mxCell>
        <mxCell id="JlU4dWkG2RvN66Z_O7ki-5" value="&lt;font style=&quot;font-size: 16px;&quot;&gt;department_id(PK)&lt;/font&gt;" style="rounded=0;whiteSpace=wrap;html=1;" vertex="1" parent="JlU4dWkG2RvN66Z_O7ki-7">
          <mxGeometry width="140" height="40" as="geometry" />
        </mxCell>
        <mxCell id="JlU4dWkG2RvN66Z_O7ki-6" value="&lt;font style=&quot;font-size: 16px;&quot;&gt;name&lt;/font&gt;" style="rounded=0;whiteSpace=wrap;html=1;" vertex="1" parent="JlU4dWkG2RvN66Z_O7ki-7">
          <mxGeometry x="140" width="130.00000000000003" height="40" as="geometry" />
        </mxCell>
        <mxCell id="JlU4dWkG2RvN66Z_O7ki-11" value="&lt;font style=&quot;font-size: 17px;&quot;&gt;3-&amp;nbsp;Courses Table&lt;/font&gt;" style="text;html=1;align=center;verticalAlign=middle;resizable=0;points=[];autosize=1;strokeColor=none;fillColor=none;" vertex="1" parent="1">
          <mxGeometry y="1840" width="150" height="30" as="geometry" />
        </mxCell>
        <mxCell id="JlU4dWkG2RvN66Z_O7ki-12" value="" style="shape=table;startSize=0;container=1;collapsible=0;childLayout=tableLayout;fontSize=16;" vertex="1" parent="1">
          <mxGeometry y="1880" width="370" height="40" as="geometry" />
        </mxCell>
        <mxCell id="JlU4dWkG2RvN66Z_O7ki-13" value="" style="shape=tableRow;horizontal=0;startSize=0;swimlaneHead=0;swimlaneBody=0;strokeColor=inherit;top=0;left=0;bottom=0;right=0;collapsible=0;dropTarget=0;fillColor=none;points=[[0,0.5],[1,0.5]];portConstraint=eastwest;fontSize=16;" vertex="1" parent="JlU4dWkG2RvN66Z_O7ki-12">
          <mxGeometry width="370" height="40" as="geometry" />
        </mxCell>
        <mxCell id="JlU4dWkG2RvN66Z_O7ki-14" value="course_id(PK)" style="shape=partialRectangle;html=1;whiteSpace=wrap;connectable=0;strokeColor=inherit;overflow=hidden;fillColor=none;top=0;left=0;bottom=0;right=0;pointerEvents=1;fontSize=16;" vertex="1" parent="JlU4dWkG2RvN66Z_O7ki-13">
          <mxGeometry width="123" height="40" as="geometry">
            <mxRectangle width="123" height="40" as="alternateBounds" />
          </mxGeometry>
        </mxCell>
        <mxCell id="JlU4dWkG2RvN66Z_O7ki-15" value="name" style="shape=partialRectangle;html=1;whiteSpace=wrap;connectable=0;strokeColor=inherit;overflow=hidden;fillColor=none;top=0;left=0;bottom=0;right=0;pointerEvents=1;fontSize=16;" vertex="1" parent="JlU4dWkG2RvN66Z_O7ki-13">
          <mxGeometry x="123" width="124" height="40" as="geometry">
            <mxRectangle width="124" height="40" as="alternateBounds" />
          </mxGeometry>
        </mxCell>
        <mxCell id="JlU4dWkG2RvN66Z_O7ki-16" value="hours" style="shape=partialRectangle;html=1;whiteSpace=wrap;connectable=0;strokeColor=inherit;overflow=hidden;fillColor=none;top=0;left=0;bottom=0;right=0;pointerEvents=1;fontSize=16;" vertex="1" parent="JlU4dWkG2RvN66Z_O7ki-13">
          <mxGeometry x="247" width="123" height="40" as="geometry">
            <mxRectangle width="123" height="40" as="alternateBounds" />
          </mxGeometry>
        </mxCell>
        <mxCell id="JlU4dWkG2RvN66Z_O7ki-28" value="&lt;font style=&quot;font-size: 16px;&quot;&gt;max_grade&lt;/font&gt;" style="rounded=0;whiteSpace=wrap;html=1;" vertex="1" parent="1">
          <mxGeometry x="370" y="1880" width="130.00000000000003" height="40" as="geometry" />
        </mxCell>
        <mxCell id="JlU4dWkG2RvN66Z_O7ki-29" value="&lt;font style=&quot;font-size: 17px;&quot;&gt;4-&amp;nbsp;Enrollments Table&lt;/font&gt;" style="text;html=1;align=center;verticalAlign=middle;resizable=0;points=[];autosize=1;strokeColor=none;fillColor=none;" vertex="1" parent="1">
          <mxGeometry y="1960" width="180" height="30" as="geometry" />
        </mxCell>
        <mxCell id="JlU4dWkG2RvN66Z_O7ki-34" value="" style="shape=table;startSize=0;container=1;collapsible=0;childLayout=tableLayout;fontSize=16;" vertex="1" parent="1">
          <mxGeometry y="2000" width="360" height="40" as="geometry" />
        </mxCell>
        <mxCell id="JlU4dWkG2RvN66Z_O7ki-35" value="" style="shape=tableRow;horizontal=0;startSize=0;swimlaneHead=0;swimlaneBody=0;strokeColor=inherit;top=0;left=0;bottom=0;right=0;collapsible=0;dropTarget=0;fillColor=none;points=[[0,0.5],[1,0.5]];portConstraint=eastwest;fontSize=16;" vertex="1" parent="JlU4dWkG2RvN66Z_O7ki-34">
          <mxGeometry width="360" height="40" as="geometry" />
        </mxCell>
        <mxCell id="JlU4dWkG2RvN66Z_O7ki-36" value="student_id(FK)" style="shape=partialRectangle;html=1;whiteSpace=wrap;connectable=0;strokeColor=inherit;overflow=hidden;fillColor=none;top=0;left=0;bottom=0;right=0;pointerEvents=1;fontSize=16;" vertex="1" parent="JlU4dWkG2RvN66Z_O7ki-35">
          <mxGeometry width="120" height="40" as="geometry">
            <mxRectangle width="120" height="40" as="alternateBounds" />
          </mxGeometry>
        </mxCell>
        <mxCell id="JlU4dWkG2RvN66Z_O7ki-37" value="course_id(FK)" style="shape=partialRectangle;html=1;whiteSpace=wrap;connectable=0;strokeColor=inherit;overflow=hidden;fillColor=none;top=0;left=0;bottom=0;right=0;pointerEvents=1;fontSize=16;" vertex="1" parent="JlU4dWkG2RvN66Z_O7ki-35">
          <mxGeometry x="120" width="120" height="40" as="geometry">
            <mxRectangle width="120" height="40" as="alternateBounds" />
          </mxGeometry>
        </mxCell>
        <mxCell id="JlU4dWkG2RvN66Z_O7ki-38" value="grade" style="shape=partialRectangle;html=1;whiteSpace=wrap;connectable=0;strokeColor=inherit;overflow=hidden;fillColor=none;top=0;left=0;bottom=0;right=0;pointerEvents=1;fontSize=16;" vertex="1" parent="JlU4dWkG2RvN66Z_O7ki-35">
          <mxGeometry x="240" width="120" height="40" as="geometry">
            <mxRectangle width="120" height="40" as="alternateBounds" />
          </mxGeometry>
        </mxCell>
        <mxCell id="JlU4dWkG2RvN66Z_O7ki-47" value="&lt;font style=&quot;font-size: 16px;&quot;&gt;semester&lt;/font&gt;" style="rounded=0;whiteSpace=wrap;html=1;" vertex="1" parent="1">
          <mxGeometry x="360" y="2000" width="130.00000000000003" height="40" as="geometry" />
        </mxCell>
        <mxCell id="JlU4dWkG2RvN66Z_O7ki-48" value="&lt;font style=&quot;font-size: 16px;&quot;&gt;year&lt;/font&gt;" style="rounded=0;whiteSpace=wrap;html=1;" vertex="1" parent="1">
          <mxGeometry x="490" y="2000" width="130.00000000000003" height="40" as="geometry" />
        </mxCell>
        <mxCell id="JlU4dWkG2RvN66Z_O7ki-49" value="&lt;font style=&quot;font-size: 17px;&quot;&gt;5-&amp;nbsp;Department_Courses Table&lt;/font&gt;" style="text;html=1;align=center;verticalAlign=middle;resizable=0;points=[];autosize=1;strokeColor=none;fillColor=none;" vertex="1" parent="1">
          <mxGeometry y="2080" width="250" height="30" as="geometry" />
        </mxCell>
        <mxCell id="JlU4dWkG2RvN66Z_O7ki-53" value=" &lt;font style=&quot;font-size: 16px;&quot;&gt;course_id(FK)&lt;/font&gt;" style="rounded=0;whiteSpace=wrap;html=1;" vertex="1" parent="1">
          <mxGeometry x="140" y="2120" width="130.00000000000003" height="40" as="geometry" />
        </mxCell>
        <mxCell id="JlU4dWkG2RvN66Z_O7ki-51" value="" style="group" vertex="1" connectable="0" parent="1">
          <mxGeometry y="2120" width="270" height="40" as="geometry" />
        </mxCell>
        <mxCell id="JlU4dWkG2RvN66Z_O7ki-52" value="&lt;font style=&quot;font-size: 16px;&quot;&gt;department_id(FK)&lt;/font&gt;" style="rounded=0;whiteSpace=wrap;html=1;" vertex="1" parent="JlU4dWkG2RvN66Z_O7ki-51">
          <mxGeometry width="140" height="40" as="geometry" />
        </mxCell>
      </root>
    </mxGraphModel>
  </diagram>
</mxfile>
